<?xml version="1.0" standalone="no"?>
<!DOCTYPE svg PUBLIC "-//W3C//DTD SVG 20010904//EN"
 "http://www.w3.org/TR/2001/REC-SVG-20010904/DTD/svg10.dtd">
<svg version="1.0" xmlns="http://www.w3.org/2000/svg"
 width="648.000000pt" height="648.000000pt" viewBox="0 0 648.000000 648.000000"
 preserveAspectRatio="xMidYMid meet">

<g transform="translate(0.000000,648.000000) scale(0.100000,-0.100000)"
fill="#000000" stroke="none">
<path d="M0 3240 l0 -3240 3240 0 3240 0 0 3240 0 3240 -3240 0 -3240 0 0
-3240z m2168 974 c148 -30 285 -101 395 -205 l58 -54 -67 -57 -66 -57 -64 55
c-75 63 -175 116 -263 139 -81 21 -231 21 -313 0 -279 -73 -478 -330 -478
-618 0 -279 192 -532 465 -613 73 -22 236 -25 315 -5 178 43 340 171 418 331
23 47 44 97 48 113 l6 27 -180 0 c-100 0 -183 3 -185 8 -3 4 -2 44 1 90 l5 82
398 0 399 0 0 390 0 390 80 0 80 0 0 -390 0 -390 600 0 600 0 0 390 0 390 433
0 432 -1 -45 -40 c-25 -22 -68 -60 -96 -85 l-51 -44 -252 0 -251 0 0 -305 0
-305 165 0 165 0 0 -90 0 -90 -165 0 -165 0 0 -335 0 -335 -85 0 -85 0 0 335
0 335 -125 0 -125 0 0 -335 0 -335 -85 0 -85 0 0 335 0 335 -390 0 -390 0 0
-228 0 -228 -77 -101 -78 -101 -3 329 -2 330 -126 -3 -126 -3 -27 -85 c-48
-149 -114 -254 -225 -357 -215 -202 -527 -270 -806 -177 -125 42 -215 99 -320
204 -79 78 -104 112 -143 186 -71 138 -91 223 -91 379 -1 137 11 199 58 317
98 243 318 424 586 484 79 17 238 17 328 -2z m2002 -344 l0 -350 -85 0 -85 0
0 227 0 227 81 123 c45 68 83 123 85 123 2 0 4 -157 4 -350z m-1968 -147 c17
-15 18 -40 18 -373 0 -329 -1 -358 -18 -373 -41 -37 -160 -29 -182 13 -6 11
-10 154 -10 362 0 333 1 345 20 366 17 18 32 22 87 22 48 0 72 -5 85 -17z
m2938 -3 c19 -19 20 -33 20 -373 0 -326 -1 -355 -18 -370 -41 -37 -160 -29
-182 13 -6 11 -10 155 -10 364 0 407 -6 386 105 386 52 0 69 -4 85 -20z
m-3160 -360 l0 -90 -50 0 -50 0 0 90 0 90 50 0 50 0 0 -90z m3310 0 l0 -90
-50 0 -50 0 0 83 c0 46 3 87 7 90 3 4 26 7 50 7 l43 0 0 -90z m-3809 -899 c18
-15 21 -22 13 -31 -9 -9 -17 -9 -32 -1 -54 29 -106 -3 -106 -64 0 -42 28 -75
65 -75 27 0 59 22 59 41 0 5 -13 9 -30 9 -20 0 -30 5 -30 15 0 11 12 15 50 15
49 0 50 -1 50 -31 0 -47 -47 -89 -100 -89 -35 0 -48 6 -77 35 -33 33 -35 38
-31 87 4 42 11 57 37 80 38 34 96 38 132 9z m230 2 c97 -58 57 -213 -55 -213
-48 0 -80 19 -101 60 -53 103 57 211 156 153z m129 -78 l0 -95 40 0 c33 0 40
-3 40 -20 0 -18 -7 -20 -60 -20 l-60 0 0 115 c0 108 1 115 20 115 19 0 20 -7
20 -95z m238 68 c55 -41 58 -121 8 -172 -19 -18 -39 -25 -80 -29 l-56 -4 0
117 0 118 51 -5 c28 -3 62 -14 77 -25z m202 7 c0 -17 -7 -20 -40 -20 -38 0
-40 -2 -40 -30 0 -28 2 -30 40 -30 29 0 40 -4 40 -15 0 -11 -11 -15 -40 -15
-38 0 -40 -2 -40 -30 0 -28 2 -30 40 -30 33 0 40 -3 40 -20 0 -18 -7 -20 -65
-20 l-65 0 0 108 c0 60 3 112 7 115 3 4 33 7 65 7 51 0 58 -2 58 -20z m125
-60 l50 -75 3 78 c3 69 5 77 22 77 19 0 20 -7 20 -115 0 -113 0 -115 -23 -115
-17 0 -33 17 -67 72 l-45 71 -5 -69 c-5 -62 -7 -69 -27 -72 -23 -3 -23 -2 -23
106 0 60 3 112 7 116 17 17 41 -4 88 -74z m245 30 l0 -50 45 0 45 0 0 50 c0
43 3 50 20 50 19 0 20 -7 20 -115 0 -108 -1 -115 -20 -115 -17 0 -20 7 -20 51
l0 50 -42 -3 -43 -3 -3 -47 c-3 -40 -6 -48 -23 -48 -18 0 -19 8 -19 115 0 108
1 115 20 115 17 0 20 -7 20 -50z m298 28 c3 -15 -4 -18 -43 -18 -45 0 -46 -1
-43 -27 3 -24 8 -28 41 -31 23 -2 37 -8 37 -17 0 -9 -14 -15 -37 -17 -33 -3
-38 -7 -41 -30 -3 -25 0 -27 40 -30 31 -2 44 -8 46 -20 3 -16 -5 -18 -62 -18
l-66 0 0 115 0 116 62 -3 c50 -2 63 -6 66 -20z m179 -83 c23 -55 42 -106 42
-112 2 -23 -36 -13 -47 12 -10 21 -18 25 -57 25 -39 0 -47 -3 -55 -25 -6 -15
-17 -25 -30 -25 -11 0 -20 2 -20 5 0 6 80 207 87 218 15 25 41 -6 80 -98z
m103 11 l0 -95 43 -3 c29 -2 42 -8 42 -18 0 -11 -15 -16 -62 -18 l-63 -3 0
116 c0 108 1 115 20 115 19 0 20 -7 20 -94z m240 74 c0 -16 -7 -20 -30 -20
l-30 0 0 -95 c0 -88 -1 -95 -20 -95 -19 0 -20 7 -20 95 l0 95 -30 0 c-23 0
-30 4 -30 20 0 18 7 20 80 20 73 0 80 -2 80 -20z m62 -27 l3 -48 43 -3 42 -3
0 50 c0 44 3 51 20 51 19 0 20 -7 20 -115 0 -108 -1 -115 -20 -115 -17 0 -20
7 -20 51 l0 50 -42 -3 -43 -3 -3 -47 c-3 -40 -6 -48 -23 -48 -18 0 -19 8 -19
115 0 107 1 115 19 115 17 0 20 -8 23 -47z m378 27 c11 -11 20 -27 20 -35 0
-8 -9 -24 -20 -35 -24 -24 -25 -33 -5 -50 12 -10 18 -10 30 0 23 19 44 -3 25
-25 -11 -13 -9 -19 10 -40 l23 -25 -24 0 c-14 0 -30 5 -37 12 -9 9 -18 9 -37
0 -88 -40 -166 31 -101 91 18 17 22 27 15 38 -38 61 49 121 101 69z m290 1 c0
-16 -8 -20 -42 -23 -38 -3 -43 -6 -43 -28 0 -22 5 -25 38 -28 23 -2 37 -8 37
-17 0 -9 -14 -15 -37 -17 -38 -3 -38 -3 -41 -50 -3 -40 -6 -48 -23 -48 -18 0
-19 8 -19 108 0 60 3 112 7 115 3 4 33 7 65 7 51 0 58 -2 58 -19z m70 -96 c0
-108 -1 -115 -20 -115 -19 0 -20 7 -20 115 0 108 1 115 20 115 19 0 20 -7 20
-115z m170 95 c0 -16 -7 -20 -30 -20 l-30 0 0 -95 c0 -88 -1 -95 -20 -95 -19
0 -20 7 -20 95 l0 95 -30 0 c-23 0 -30 4 -30 20 0 18 7 20 80 20 73 0 80 -2
80 -20z m110 -57 l50 -78 0 78 c0 70 2 77 20 77 19 0 20 -7 20 -115 0 -107 -1
-115 -19 -115 -13 0 -35 24 -68 76 l-48 77 -3 -77 c-3 -68 -5 -76 -22 -76 -19
0 -20 7 -20 115 0 109 1 115 20 115 14 0 35 -23 70 -77z m260 57 c0 -17 -7
-20 -40 -20 -38 0 -40 -2 -40 -30 0 -28 3 -30 35 -30 24 0 35 -5 35 -15 0 -10
-11 -15 -35 -15 -32 0 -35 -2 -35 -30 0 -28 2 -30 40 -30 33 0 40 -3 40 -20 0
-18 -7 -20 -65 -20 l-65 0 0 108 c0 60 3 112 7 115 3 4 33 7 65 7 51 0 58 -2
58 -20z m148 14 c39 -11 23 -39 -22 -39 -56 0 -55 -20 3 -56 44 -26 51 -35 51
-62 0 -44 -25 -67 -75 -67 -49 0 -81 20 -72 44 5 14 11 15 27 6 29 -16 74 -9
78 12 2 11 -9 23 -30 34 -72 36 -88 75 -46 114 22 21 46 24 86 14z m188 -8
c25 -19 11 -31 -34 -31 -50 0 -55 -28 -10 -51 49 -24 68 -44 68 -71 0 -34 -34
-63 -75 -63 -35 0 -85 18 -85 30 0 16 26 29 40 20 23 -15 67 -12 73 4 6 14
-22 46 -39 46 -22 0 -54 42 -54 70 0 51 70 79 116 46z"/>
<path d="M1610 2420 c-24 -24 -26 -77 -4 -108 34 -49 114 -14 114 51 0 65 -67
100 -110 57z"/>
<path d="M1990 2365 c0 -73 1 -75 24 -75 30 0 66 43 66 77 0 29 -42 73 -70 73
-18 0 -20 -6 -20 -75z"/>
<path d="M3051 2379 c-14 -41 -15 -39 15 -39 24 0 25 3 19 28 -10 42 -22 46
-34 11z"/>
<path d="M3843 2434 c-3 -8 1 -22 9 -30 13 -13 16 -13 27 0 7 9 11 23 7 31 -7
20 -35 19 -43 -1z"/>
<path d="M3833 2343 c-7 -3 -13 -16 -13 -29 0 -20 5 -24 29 -24 17 0 32 4 35
9 8 12 -36 49 -51 44z"/>
</g>
</svg>
